<?xml version="1.0" encoding="UTF-8" standalone="no"?>
<!-- Created with Inkscape (http://www.inkscape.org/) -->

<svg
   xmlns:dc="http://purl.org/dc/elements/1.1/"
   xmlns:cc="http://creativecommons.org/ns#"
   xmlns:rdf="http://www.w3.org/1999/02/22-rdf-syntax-ns#"
   xmlns:svg="http://www.w3.org/2000/svg"
   xmlns="http://www.w3.org/2000/svg"
   xmlns:sodipodi="http://sodipodi.sourceforge.net/DTD/sodipodi-0.dtd"
   xmlns:inkscape="http://www.inkscape.org/namespaces/inkscape"
   width="32"
   height="32"
   viewBox="0 0 8.4666665 8.4666669"
   version="1.1"
   id="svg1789"
   inkscape:version="0.92.2 (5c3e80d, 2017-08-06)"
   sodipodi:docname="options-hidden.svg">
  <defs
     id="defs1783">
    <inkscape:path-effect
       effect="bspline"
       id="path-effect2357"
       is_visible="true"
       weight="33.333333"
       steps="2"
       helper_size="0"
       apply_no_weight="true"
       apply_with_weight="true"
       only_selected="false" />
    <inkscape:path-effect
       effect="bspline"
       id="path-effect2357-9"
       is_visible="true"
       weight="33.333333"
       steps="2"
       helper_size="0"
       apply_no_weight="true"
       apply_with_weight="true"
       only_selected="false" />
    <inkscape:path-effect
       effect="bspline"
       id="path-effect2357-9-9"
       is_visible="true"
       weight="33.333333"
       steps="2"
       helper_size="0"
       apply_no_weight="true"
       apply_with_weight="true"
       only_selected="false" />
    <clipPath
       clipPathUnits="userSpaceOnUse"
       id="clipPath4563">
      <ellipse
         style="opacity:1;fill:#ff0000;fill-opacity:1;stroke:none;stroke-width:0.49887457;stroke-linecap:round;stroke-linejoin:round;stroke-miterlimit:4;stroke-dasharray:none;stroke-opacity:1"
         id="ellipse4565"
         cx="4.2333341"
         cy="292.76666"
         rx="3.4395835"
         ry="3.4395778" />
    </clipPath>
  </defs>
  <sodipodi:namedview
     id="base"
     pagecolor="#ffffff"
     bordercolor="#666666"
     borderopacity="1.0"
     inkscape:pageopacity="0.0"
     inkscape:pageshadow="2"
     inkscape:zoom="16"
     inkscape:cx="16.900594"
     inkscape:cy="9.9083168"
     inkscape:document-units="mm"
     inkscape:current-layer="layer1"
     showgrid="true"
     inkscape:window-width="1920"
     inkscape:window-height="1031"
     inkscape:window-x="0"
     inkscape:window-y="23"
     inkscape:window-maximized="0"
     units="px"
     inkscape:pagecheckerboard="true"
     inkscape:snap-bbox="true"
     inkscape:bbox-nodes="true">
    <inkscape:grid
       type="xygrid"
       id="grid2353"
       empspacing="4" />
  </sodipodi:namedview>
  <metadata
     id="metadata1786">
    <rdf:RDF>
      <cc:Work
         rdf:about="">
        <dc:format>image/svg+xml</dc:format>
        <dc:type
           rdf:resource="http://purl.org/dc/dcmitype/StillImage" />
        <dc:title></dc:title>
      </cc:Work>
    </rdf:RDF>
  </metadata>
  <g
     inkscape:label="Layer 1"
     inkscape:groupmode="layer"
     id="layer1"
     transform="translate(0,-288.53332)">
    <ellipse
       style="opacity:1;fill:#222222;fill-opacity:1;stroke:none;stroke-width:0.90000069;stroke-linecap:round;stroke-linejoin:round;stroke-miterlimit:4;stroke-dasharray:none"
       id="path4554"
       cx="4.2333331"
       cy="292.76666"
       rx="4.2333331"
       ry="4.2333393" />
    <ellipse
       style="opacity:1;fill:none;fill-opacity:1;stroke:#222222;stroke-width:0.8064543;stroke-linecap:round;stroke-linejoin:round;stroke-miterlimit:4;stroke-dasharray:none;stroke-opacity:1"
       id="path4554-3"
       cx="4.2333336"
       cy="292.76666"
       rx="3.8301063"
       ry="3.8301048" />
    <path
       style="fill:#666666;fill-opacity:1;stroke-width:0.01508937"
       d="m 3.765505,295.85587 c -0.043848,-0.0179 -0.1008721,-0.0684 -0.1258954,-0.11162 -0.010555,-0.0182 -0.020467,-0.13648 -0.025024,-0.29856 l -0.00754,-0.2684 -0.1584571,-0.0529 c -0.087152,-0.029 -0.2309143,-0.0888 -0.3194732,-0.13288 l -0.1610161,-0.08 -0.1709894,0.17275 c -0.094045,0.0951 -0.1928422,0.18224 -0.2195511,0.19382 -0.05767,0.0251 -0.1368832,0.0272 -0.1956873,0.005 -0.056551,-0.021 -0.6358248,-0.59694 -0.6627518,-0.65888 -0.02691,-0.0618 -0.026927,-0.14268 -3.92e-5,-0.20466 0.011586,-0.0266 0.098826,-0.12547 0.1938658,-0.21949 l 0.1728001,-0.17095 -0.080083,-0.16097 c -0.044047,-0.0886 -0.1038595,-0.23227 -0.1329187,-0.3194 l -0.052834,-0.15842 -0.2711753,-0.007 c -0.2956849,-0.008 -0.3119728,-0.0129 -0.3855238,-0.11143 -0.029854,-0.0399 -0.031114,-0.0606 -0.031114,-0.50716 0,-0.44662 0.00126,-0.46721 0.031114,-0.50717 0.073552,-0.0985 0.089839,-0.1032 0.3855238,-0.11144 l 0.2711753,-0.007 0.052834,-0.15841 c 0.029059,-0.0871 0.088872,-0.23087 0.1329181,-0.31939 l 0.080083,-0.16099 -0.1728001,-0.17095 c -0.09504,-0.094 -0.1822798,-0.19279 -0.1938658,-0.2195 -0.025017,-0.0577 -0.027142,-0.13685 -0.00524,-0.19564 0.021053,-0.0565 0.5970727,-0.63568 0.6590286,-0.66259 0.061917,-0.0269 0.1427214,-0.0269 0.2047002,-5e-5 0.026708,0.0116 0.1255068,0.0988 0.219551,0.19383 l 0.1709894,0.17276 0.1610161,-0.08 c 0.088559,-0.0441 0.2323218,-0.10383 0.3194731,-0.13289 l 0.1584572,-0.0529 0.00754,-0.27111 c 0.00822,-0.29562 0.012936,-0.31189 0.1114499,-0.38544 0.039985,-0.0299 0.060559,-0.0311 0.5072875,-0.0311 0.4467277,0 0.4673029,9.4e-4 0.5072875,0.0311 0.098513,0.0735 0.1032224,0.0898 0.11145,0.38544 l 0.00754,0.27111 0.1584572,0.0529 c 0.087152,0.029 0.2309143,0.0888 0.319473,0.13289 l 0.1610162,0.08 0.1709894,-0.17276 c 0.094045,-0.0951 0.1928422,-0.18224 0.219551,-0.19383 0.061979,-0.0268 0.1427829,-0.0268 0.2047001,5e-5 0.061956,0.0269 0.6379754,0.60605 0.6590287,0.66259 0.021892,0.0588 0.019766,0.13798 -0.00524,0.19564 -0.011586,0.0266 -0.098826,0.12548 -0.1938658,0.2195 l -0.1728,0.17095 0.080083,0.16099 c 0.044046,0.0885 0.1038594,0.23225 0.132918,0.31939 l 0.052835,0.15841 0.2711751,0.007 c 0.295685,0.008 0.3119729,0.013 0.385524,0.11144 0.029853,0.0399 0.031114,0.0606 0.031114,0.50717 0,0.44661 -0.00126,0.46718 -0.031114,0.50716 -0.073552,0.0985 -0.089839,0.1032 -0.385524,0.11143 l -0.2711751,0.007 -0.052835,0.15842 c -0.02906,0.0871 -0.088872,0.23085 -0.132918,0.3194 l -0.080083,0.16097 0.1728,0.17094 c 0.09504,0.094 0.1822797,0.19281 0.1938658,0.2195 0.026886,0.062 0.02687,0.14276 -4.51e-5,0.20466 -0.026928,0.0619 -0.6062007,0.63782 -0.6627518,0.65888 -0.058804,0.0218 -0.1380179,0.0197 -0.1956874,-0.005 -0.026708,-0.0116 -0.1255069,-0.0988 -0.2195509,-0.19382 l -0.1709895,-0.17275 -0.1610161,0.08 c -0.088554,0.044 -0.2323163,0.10383 -0.3194677,0.13288 l -0.1584572,0.0529 -0.00754,0.27111 c -0.00822,0.2956 -0.01293,0.31186 -0.1114202,0.38543 -0.03963,0.0296 -0.063321,0.0312 -0.4895303,0.0343 -0.2768372,0.002 -0.4622904,-0.003 -0.4856052,-0.0122 z m 0.7202814,-1.87807 c 0.4793821,-0.099 0.8621624,-0.48169 0.9611814,-0.96095 0.065858,-0.31876 0.00207,-0.6552 -0.1758923,-0.92776 -0.2315557,-0.35461 -0.6142917,-0.56184 -1.0377524,-0.56184 -0.4234606,0 -0.8061965,0.20723 -1.0377521,0.56184 -0.1779669,0.27256 -0.241751,0.609 -0.1758923,0.92776 0.098357,0.47606 0.4804068,0.85986 0.9570948,0.96147 0.1338085,0.0285 0.3695505,0.0282 0.5090129,-5.2e-4 z"
       id="path976"
       inkscape:connector-curvature="0" />
  </g>
</svg>
