<svg xmlns="http://www.w3.org/2000/svg" width="32" height="32" viewBox="0 0 8.467 8.467">
  <g transform="translate(0 -288.533)">
    <ellipse cx="4.233" cy="292.767" rx="4.233" ry="4.233" fill="#222"/>
    <ellipse cx="4.233" cy="292.767" rx="3.83" ry="3.83" fill="none" stroke="#222" stroke-width=".806" stroke-linecap="round" stroke-linejoin="round"/>
    <path d="M3.766 295.856a.306.306 0 0 1-.126-.112 1.454 1.454 0 0 1-.025-.298l-.008-.269-.158-.053a2.984 2.984 0 0 1-.32-.132l-.16-.08-.172.172a1.472 1.472 0 0 1-.22.194.279.279 0 0 1-.195.005c-.057-.02-.636-.597-.663-.659a.27.27 0 0 1 0-.204c.012-.027.099-.126.194-.22l.173-.17-.08-.162a3.008 3.008 0 0 1-.133-.32l-.053-.158-.271-.007c-.296-.008-.312-.013-.386-.111-.03-.04-.03-.06-.03-.507s0-.467.03-.507c.074-.099.09-.104.386-.112l.27-.007.054-.158c.029-.087.089-.231.133-.32l.08-.16-.173-.172a1.475 1.475 0 0 1-.194-.22.28.28 0 0 1-.005-.195c.02-.056.597-.635.659-.662a.27.27 0 0 1 .205 0c.026.011.125.098.22.193l.17.173.161-.08c.089-.044.232-.104.32-.133l.158-.053.008-.27c.008-.296.013-.313.111-.386.04-.03.06-.031.507-.031s.468 0 .508.03c.098.074.103.09.111.386l.008.271.158.053c.087.03.231.09.32.133l.16.08.172-.173c.094-.095.192-.182.22-.193a.27.27 0 0 1 .204 0c.062.027.638.606.659.662a.281.281 0 0 1-.005.196 1.482 1.482 0 0 1-.194.22l-.173.17.08.161c.044.089.104.233.133.32l.053.158.27.007c.297.008.313.013.386.112.03.04.032.06.032.507 0 .446-.002.467-.032.507-.073.098-.09.103-.385.111l-.271.007-.053.159c-.03.087-.089.23-.133.32l-.08.16.173.171c.095.094.182.193.194.22a.27.27 0 0 1 0 .204c-.027.062-.607.638-.663.66a.283.283 0 0 1-.196-.006 1.478 1.478 0 0 1-.22-.194l-.17-.172-.161.08a3.01 3.01 0 0 1-.32.132l-.158.053-.008.271c-.008.296-.013.312-.111.386-.04.03-.064.031-.49.034a3.798 3.798 0 0 1-.485-.012zm.72-1.878c.48-.1.862-.482.961-.961a1.244 1.244 0 0 0-.176-.928 1.227 1.227 0 0 0-1.038-.562c-.423 0-.806.207-1.037.562a1.244 1.244 0 0 0-.176.928c.098.476.48.86.957.961.134.029.37.029.509 0z" fill="#666"/>
  </g>
</svg>